<?xml version="1.0" standalone="no"?>
<!DOCTYPE svg PUBLIC "-//W3C//DTD SVG 20010904//EN"
 "http://www.w3.org/TR/2001/REC-SVG-20010904/DTD/svg10.dtd">
<svg version="1.0" xmlns="http://www.w3.org/2000/svg"
 width="700.000000pt" height="700.000000pt" viewBox="0 0 700.000000 700.000000"
 preserveAspectRatio="xMidYMid meet">
<metadata>
Created by potrace 1.14, written by Peter Selinger 2001-2017
</metadata>
<g transform="translate(0.000000,700.000000) scale(0.100000,-0.100000)"
fill="#000000" stroke="none">
<path d="M970 6938 c-124 -18 -288 -86 -365 -152 -16 -14 -33 -26 -36 -26 -10
0 -95 -113 -116 -155 -54 -106 -73 -246 -48 -354 46 -193 205 -346 400 -382
140 -26 318 21 419 110 27 24 27 22 -6 -19 -57 -73 -87 -132 -108 -214 -58
-229 44 -462 250 -570 82 -43 143 -58 241 -58 117 0 218 34 311 105 l45 35
-33 -56 c-53 -87 -76 -158 -81 -252 -6 -101 7 -173 47 -255 l30 -60 -115 -112
c-145 -142 -274 -252 -445 -378 -309 -229 -774 -495 -1078 -616 -113 -45 -145
-64 -186 -110 -76 -83 -104 -203 -72 -311 21 -74 43 -105 206 -298 77 -90 339
-403 495 -590 71 -85 134 -160 140 -166 5 -7 19 -22 29 -35 11 -13 42 -51 70
-84 83 -97 89 -105 197 -235 57 -69 106 -127 109 -130 3 -3 98 -115 210 -250
112 -135 207 -247 210 -250 3 -3 37 -43 75 -90 38 -47 72 -87 75 -90 3 -3 37
-43 75 -90 39 -47 82 -98 97 -115 14 -16 56 -66 92 -110 40 -48 83 -88 109
-102 119 -62 373 -39 612 54 154 60 433 200 605 303 566 341 993 717 1338
1182 23 32 47 58 52 58 6 0 -5 -19 -23 -43 -155 -203 -137 -501 42 -676 129
-127 312 -176 484 -129 69 19 153 56 179 80 7 7 24 22 38 33 24 20 24 20 -2
-15 -64 -87 -100 -201 -101 -315 -1 -263 206 -484 468 -500 154 -9 295 46 408
158 56 56 77 87 117 170 119 254 123 520 13 847 -34 103 -140 329 -169 361 -8
8 -14 18 -14 22 0 12 -95 145 -166 232 -129 159 -390 396 -496 451 -24 12 -27
18 -18 29 10 12 128 84 265 161 11 7 88 46 170 87 252 126 498 225 734 296
157 47 197 76 232 171 42 111 14 248 -75 363 -35 47 -327 393 -405 482 -19 22
-490 579 -692 820 -20 23 -152 179 -183 215 -12 14 -55 66 -96 115 -41 50 -77
92 -80 95 -3 3 -55 64 -115 135 -60 72 -114 135 -120 141 -5 7 -39 47 -75 89
-314 375 -348 414 -389 434 -144 73 -382 34 -816 -134 -60 -23 -132 -53 -160
-65 -332 -150 -600 -303 -843 -482 -52 -38 -95 -68 -97 -66 -2 2 -19 40 -38
84 -161 375 -486 745 -858 977 -178 112 -442 214 -624 242 -72 10 -278 13
-345 3z"/>
</g>
</svg>
